<svg id="Ebene_1" data-name="Ebene 1" xmlns="http://www.w3.org/2000/svg" xmlns:xlink="http://www.w3.org/1999/xlink" viewBox="0 0 48.4 40"><defs><clipPath id="clip-path" transform="translate(-0.17 -0.11)"><rect x="0.17" y="0.11" width="48.4" height="40" fill="none"/></clipPath></defs><title>Logo-Heroe-white</title><g clip-path="url(#clip-path)"><path d="M25.59,28.31c-.38-.63,3.4-3,3.83-9.2S26.86,6.05,33.05,1.8a10,10,0,0,1,15,11.51c-2.89,10-21.48,16.67-22.5,15" transform="translate(-0.17 -0.11)" fill="#fff"/><path d="M26.17,23.7c-.44,0-.8-1.54-4.08-4.21-2.83-2.32-6.95-2.54-7.53-6.92a5.68,5.68,0,0,1,10-4.4c4.18,4.29,2.84,15.46,1.66,15.53" transform="translate(-0.17 -0.11)" fill="#fff"/><path d="M20.17,20.68c0,.13-1.89.31-3.18.61-1.94.44-2.86,1.1-4,.87a1.88,1.88,0,0,1-.23-3.65,6.1,6.1,0,0,1,3.84.52,30.19,30.19,0,0,1,3.59,1.65" transform="translate(-0.17 -0.11)" fill="#fff"/><path d="M4.8,32.29a2.82,2.82,0,0,0-1.73.56V30.06c0-.48-.27-.8-.75-.74l-1.41.25c-.48.09-.74.27-.74.76v8.84a.67.67,0,0,0,.74.74H2.32a.67.67,0,0,0,.75-.74v-3.4a.92.92,0,0,1,.95-1,.93.93,0,0,1,1,1v3.4a.67.67,0,0,0,.74.74H7.15a.68.68,0,0,0,.76-.74V35.56A3,3,0,0,0,4.8,32.29" transform="translate(-0.17 -0.11)" fill="#fff"/><path d="M12,35.29a1.13,1.13,0,0,1,1.17-1,1.2,1.2,0,0,1,.85.33,1.25,1.25,0,0,1,.34.71Zm1.25-3a3.83,3.83,0,0,0-4.06,3.88,3.9,3.9,0,0,0,4.16,3.94A4.78,4.78,0,0,0,16.61,39a.5.5,0,0,0,0-.8L16,37.6c-.31-.32-.55-.18-.83,0a2.37,2.37,0,0,1-1.4.46A1.58,1.58,0,0,1,12,36.79h4.46c.61,0,.73-.19.73-.76a3.85,3.85,0,0,0-1.07-2.67,4,4,0,0,0-2.87-1.07" transform="translate(-0.17 -0.11)" fill="#fff"/><path d="M24,32.47a3.49,3.49,0,0,0-1.14-.18,2.61,2.61,0,0,0-2.07,1.14v-.28a.67.67,0,0,0-.74-.74H19.1a.67.67,0,0,0-.74.74v6a.67.67,0,0,0,.74.74h1.45a.67.67,0,0,0,.74-.74V36a1.14,1.14,0,0,1,1.26-1.24,2.57,2.57,0,0,1,.82.18c.27.1.54,0,.65-.45l.36-1.33c.12-.46-.16-.58-.42-.67" transform="translate(-0.17 -0.11)" fill="#fff"/><path d="M29,37.67a1.53,1.53,0,1,1,1.39-1.52A1.41,1.41,0,0,1,29,37.67m0-5.43a3.92,3.92,0,1,0,0,7.82,3.92,3.92,0,1,0,0-7.82" transform="translate(-0.17 -0.11)" fill="#fff"/><path d="M37.14,35.29a1.13,1.13,0,0,1,1.17-1,1.22,1.22,0,0,1,.85.33,1.32,1.32,0,0,1,.34.71Zm1.24-3a3.82,3.82,0,0,0-4.05,3.88,3.9,3.9,0,0,0,4.16,3.94A4.75,4.75,0,0,0,41.71,39a.49.49,0,0,0,0-.8l-.59-.62c-.31-.32-.55-.18-.83,0a2.37,2.37,0,0,1-1.4.46,1.57,1.57,0,0,1-1.72-1.28h4.45c.61,0,.73-.19.73-.76a3.81,3.81,0,0,0-1.07-2.67,4,4,0,0,0-2.87-1.07" transform="translate(-0.17 -0.11)" fill="#fff"/><path d="M45.93,37a1.54,1.54,0,1,0,1.54,1.54A1.54,1.54,0,0,0,45.93,37" transform="translate(-0.17 -0.11)" fill="#fff"/></g></svg>